/* XPM */
static char *charctor1711999104[] = {
/* columns rows colors chars-per-pixel */
"32 32 68 1 ",
"  c None",
". c #547C85",
"X c #008CA2",
"o c #0097B3",
"O c #009DB6",
"+ c #009FB8",
"@ c #01A2BA",
"# c #1DA2B7",
"$ c #16A6BC",
"% c #1DA6BC",
"& c #1CA8BE",
"* c #23A7BC",
"= c #2AA7BD",
"- c #25A8BD",
"; c #2FA8BD",
": c #33A9BE",
"> c #3CA9BE",
", c #449DAE",
"< c #00AFC9",
"1 c #1EADC4",
"2 c #00B2CA",
"3 c #1CB0C7",
"4 c #16B4CD",
"5 c #1EB4CB",
"6 c #22ABC1",
"7 c #33ACC2",
"8 c #21B4CC",
"9 c #2DB6CD",
"0 c #37B8CF",
"q c #22B8D0",
"w c #4AADC1",
"e c #51AFC2",
"r c #53B2C5",
"t c #5AB1C2",
"y c #56B9CD",
"u c #65B5C6",
"i c #6BB6C6",
"p c #74B9C8",
"a c #7EBFCD",
"s c #24C0D9",
"d c #70C2D4",
"f c #7AC1D0",
"g c #83BFCC",
"h c #87C1CD",
"j c #8AC3CE",
"k c #94C6D1",
"l c #9AC9D2",
"z c #A9D1D7",
"x c #AED2DA",
"c c #B9EBF5",
"v c #C2DEE1",
"b c #C4E0E2",
"n c #CCE3E5",
"m c #D0E6E6",
"M c #D5E9E7",
"N c #D6EAE9",
"B c #DAECEB",
"V c #DFF0ED",
"C c #E1EFEE",
"Z c #E4F1EF",
"A c #E6F2F1",
"S c #EAF4F3",
"D c #EFF8F7",
"F c #E5FBFC",
"G c #EDFCFB",
"H c #F2F9F6",
"J c #F2FEFD",
"K c #FEFFFF",
/* pixels */
"                                ",
"         -*-                    ",
"         s888**  -**&-%=        ",
"         =1%%1588853638q5*      ",
"          6&%%*$%%%%%$$%#35*    ",
"          6&%%%*%%%%*:7,.>70w   ",
"         *$%*#$%*%$*:@@oXO@@@o  ",
"        61&%%;:%%%==O>iafitwrdcb",
"       61%%=:@@=%*@jvNBAADGFmMN ",
"      *1%$7@Ott@$=@vHSHKGCA     ",
"     *5%*:O=xCNi@@wBSKVB        ",
"    *q%=;OpBHASl@+zJGB          ",
"    *$**OkASAASzojJB            ",
"   =q-=OlSSAAADkhGB             ",
"   *1;OgASZAAAAnGB              ",
"   1;@wBDCAAASSDN               ",
"   9$@xHAAAASGB                 ",
"   9OiCAAAASJB                  ",
"  :4@xDCASJVN                   ",
"  72eBDAJAB                     ",
"   <lDSGB                       ",
"   2vJCB                        ",
"   yCD                          ",
"   jKA                          ",
"   nKA                          ",
"   ADAA                         ",
"  BKSAHJA                       ",
"  JAASASDDA                     ",
" BJAAJJJGJKZ                    ",
" AJJBBBBNBBC                    ",
" NN                             ",
"                                "
};
