/* XPM */
static char *goal1711999104[] = {
/* columns rows colors chars-per-pixel */
"32 32 150 2 ",
"   c None",
".  c #000001",
"X  c #00000A",
"o  c #090B0F",
"O  c #0A0A06",
"+  c #1C0000",
"@  c #151204",
"#  c #1B1702",
"$  c #1F1A01",
"%  c #151309",
"&  c #000013",
"*  c #0D0F12",
"=  c #00001B",
"-  c #1B1B19",
";  c #241F05",
":  c #281B00",
">  c #231E0E",
",  c #272103",
"<  c #2E2800",
"1  c #25200C",
"2  c #2B270D",
"3  c #2C2601",
"4  c #332D00",
"5  c #332D0B",
"6  c #373109",
"7  c #000024",
"8  c #000029",
"9  c #000032",
"0  c #4F4100",
"q  c #49410D",
"w  c #484017",
"e  c #5D521A",
"r  c #665B1D",
"t  c #776400",
"y  c #70630E",
"u  c #514F45",
"i  c #5E5A4A",
"p  c #696557",
"a  c #51576A",
"s  c #535B6F",
"d  c #8C7800",
"f  c #80711B",
"g  c #817427",
"h  c #8B7C20",
"j  c #857728",
"k  c #86782C",
"l  c #857833",
"z  c #897D44",
"x  c #958200",
"c  c #A58F00",
"v  c #B9A300",
"b  c #B7A21A",
"n  c #91822D",
"m  c #8D803E",
"M  c #9B8C3D",
"N  c #AC9A36",
"B  c #B3A13A",
"V  c #BEAB3D",
"C  c #BAA73C",
"Z  c #C6AF00",
"A  c #C7B221",
"S  c #D4BD25",
"D  c #EED300",
"F  c #F0D61E",
"G  c #EDD322",
"H  c #EED52A",
"J  c #F0D621",
"K  c #F0D628",
"L  c #F2D82B",
"P  c #ECD333",
"I  c #F0D734",
"U  c #F0D73C",
"Y  c #F2D834",
"T  c #8F8345",
"R  c #9B8D48",
"E  c #BFAC40",
"W  c #BDAB51",
"Q  c #C0AC41",
"!  c #C6B240",
"~  c #C9B442",
"^  c #CEBA43",
"/  c #D3BD45",
"(  c #D9C44A",
")  c #DEC95A",
"_  c #E4CD4D",
"`  c #E3CC44",
"'  c #E7D04E",
"]  c #EDD54F",
"[  c #F0D745",
"{  c #F1D841",
"}  c #F0D74C",
"|  c #F1D94E",
" . c #E0CA52",
".. c #EFD750",
"X. c #EFD851",
"o. c #EFD858",
"O. c #E9D35D",
"+. c #F0D751",
"@. c #F1D951",
"#. c #F8DF54",
"$. c #F3DC5B",
"%. c #F9E04D",
"&. c #FBE254",
"*. c #FFEA57",
"=. c #FAE15C",
"-. c #FFED58",
";. c #FFF159",
":. c #D5C36E",
">. c #EED868",
",. c #F0DA69",
"<. c #EEDB7E",
"1. c #F3DE77",
"2. c #FAE36C",
"3. c #6E778F",
"4. c #71798E",
"5. c #7A7E8A",
"6. c #929088",
"7. c #9E9D97",
"8. c #A39D86",
"9. c #EAD886",
"0. c #F1DF8B",
"q. c #EDDD97",
"w. c #F0DF95",
"e. c #FAE689",
"r. c #D1CAB0",
"t. c #D7D1BD",
"y. c #EBDFAD",
"u. c #E5D9AB",
"i. c #E6DCB6",
"p. c #EFE2A9",
"a. c #F5E6A6",
"s. c #F3E8BE",
"d. c #F9EDBC",
"f. c #CED1D9",
"g. c #EAE3C2",
"h. c #EAE3C8",
"j. c #F6EECA",
"k. c #F6EDC3",
"l. c #FFF2C1",
"z. c #F8F2DB",
"x. c #EBECE7",
"c. c #EEEEEA",
"v. c #F5F1E2",
"b. c #FCF7E2",
"n. c #F0F1EE",
"m. c #FFFEEC",
"M. c #ECEEF3",
"N. c #EDF0F7",
"B. c #F5F7FE",
"V. c white",
/* pixels */
"                                                                ",
"                                                                ",
"                      X.@.+.X...@.@.                            ",
"                @.@.#.-.-.*.*.*.*.*.*.@.@.                      ",
"              @.-.&.| @.| X.+.| @...| #.*.&.@.                  ",
"          @.*.&.| X.@.| X.| | +.@.@.| +.@.@.*.&.X.              ",
"        @.-.....| X.| X.X.| +.+.@...@.+.@.@.X.@.-._             ",
"      @.;.+.@.@.+.X.X.| +.+.] ' ....X.| X.| | ] ..*.Q           ",
"      &.@.@.| @.| +.+.+.] +.&.&.#...] | ] ] ..#.&.@.N .         ",
"    @.*.@.@.@.....@.+.+.&.] ^ ~ ) =.@.] #.&.@.( N r . . %       ",
"    @.@.@.| ..| +.+.+.| V q & . . d G #._ V g 5 . . @ , O       ",
"    *.@.@.] @.@.+.] &.B . = . . s 4.8.T . . . . . . =           ",
"  @.*.@.@.+.| X.] &.( 4 = . u r.z.b.v.t.z y l k M               ",
"  X.&.@.+.@.@.@.' &.B 7 . a u.=.U { { #.#.#.&.#.| $.e.2.b       ",
"  @.&.@.@.@.X.] | @.n 8 . f.l.K ..@.+.] ] @...$.L <.c.a.c 9     ",
"  X.&.@.@...@.] X.| m . i B.d.G ..@.@.@.@.@.] @.U ,.p.1.x & 5   ",
"  @.&.X.| +.+.+.| | R . 6.V.d.H @...X.@.@.| ..o.F q.c.q.d 7 5   ",
"  @.*.X.+.+.+.+.] &.W . 7.V.d.D #.#.@.....@.@.@.J y.n.9.t 7 5   ",
"    -.X.| | +.+.] #.O.+ 5.V.m.:.v E ' @...| @.] I h.v.) 0 7 6   ",
"    %.+.X.| @.@.| ' =.A p M.V.N.3.: _ #.+.] $.I ,.x.j.Z . & 2   ",
"    @.*.| @.@.| | | ..#.S i.b.m.s.` #.] +.X.| Y g.M.0.x 7 3     ",
"      &.] @.@.@.| X.....#.Y ] P L #.] +.X.@.[ } g.k.S . & ,     ",
"      @.;.X.@.| @.| @.X...o.} @.......@.@.@.X.' #.' y X < X     ",
"        X.-.@.] @.@...@.@.@.@.@.....@...@.] ] #.[ f X 3 .       ",
"          @.*.#.+.] | X.| X.| | +.+.+.| ] @.&._ l & ; @ o       ",
"            ( +.&.&.@.] ] ] ' ] ] ] | @.&.@.~ e . ; @ *         ",
"                B ' #.&.&.#.#.#.#.#.#.' A p . . ; @ o           ",
"                  w j N V ^ / / ~ B h r . O . ; @               ",
"                      . . . . . . . . . . # > -                 ",
"                            X X . . @ 1 2                       ",
"                                                                ",
"                                                                "
};
