/* XPM */
static char *item1711999104[] = {
/* columns rows colors chars-per-pixel */
"32 32 233 2 ",
"   c None",
".  c #224A56",
"X  c #264957",
"o  c #274B59",
"O  c #2B4D59",
"+  c #5F4961",
"@  c #5B5365",
"#  c #5D5C6B",
"$  c #614A61",
"%  c #644D64",
"&  c #654D65",
"*  c #664E66",
"=  c #6A4F67",
"-  c #754967",
";  c #764C69",
":  c #695168",
">  c #645D6D",
",  c #79526C",
"<  c #785770",
"1  c #62606F",
"2  c #656371",
"3  c #656472",
"4  c #676573",
"5  c #7B6177",
"6  c #7B6377",
"7  c #7B6378",
"8  c #7B6578",
"9  c #7A677A",
"0  c #94597C",
"q  c #787B84",
"w  c #7D7B85",
"e  c #797C84",
"r  c #797D85",
"t  c #AA5783",
"y  c #AB5984",
"u  c #AD5C86",
"i  c #AF5C86",
"p  c #AF5C87",
"a  c #AF5D87",
"s  c #B15F88",
"d  c #B15F89",
"f  c #B16089",
"g  c #B1628A",
"h  c #C16F96",
"j  c #C57A9D",
"k  c #E1699F",
"l  c #DF6CA1",
"z  c #DE7EA9",
"x  c #DF7FA9",
"c  c #DF7FAA",
"v  c #E06CA1",
"b  c #E06DA1",
"n  c #E16EA2",
"m  c #E16FA2",
"M  c #E16FA3",
"N  c #E26FA3",
"B  c #E36EA4",
"V  c #E46EA4",
"C  c #E56EA4",
"Z  c #E46FA4",
"A  c #E56FA4",
"S  c #E270A3",
"D  c #E370A4",
"F  c #E372A5",
"G  c #E470A4",
"H  c #E570A5",
"J  c #E670A5",
"K  c #E671A5",
"L  c #E472A5",
"P  c #E671A6",
"I  c #E771A6",
"U  c #E771A7",
"Y  c #E773A7",
"T  c #E675A7",
"R  c #E676A7",
"E  c #E872A7",
"W  c #E777A8",
"Q  c #E874A8",
"!  c #EF77AB",
"~  c #E778A9",
"^  c #E878A9",
"/  c #E979AA",
"(  c #EA79AB",
")  c #EC7AAD",
"_  c #EF7DAE",
"`  c #F37DAF",
"'  c #F27DB0",
"]  c #9A8899",
"[  c #C18FAB",
"{  c #DE80A9",
"}  c #C295AD",
"|  c #C196AD",
" . c #C197AE",
".. c #C397AF",
"X. c #C298AF",
"o. c #C398B0",
"O. c #C299B0",
"+. c #C399B0",
"@. c #C29FB4",
"#. c #EE82B0",
"$. c #F281B1",
"%. c #F083B2",
"&. c #F285B3",
"*. c #F484B3",
"=. c #F286B4",
"-. c #F485B4",
";. c #F585B4",
":. c #F486B4",
">. c #F586B4",
",. c #F487B4",
"<. c #F487B5",
"1. c #F587B5",
"2. c #F389B5",
"3. c #F189B6",
"4. c #F488B5",
"5. c #F588B5",
"6. c #F489B6",
"7. c #F589B6",
"8. c #F689B7",
"9. c #F58AB6",
"0. c #F58AB7",
"q. c #F58BB7",
"w. c #F68AB7",
"e. c #F68BB7",
"r. c #F78BB7",
"t. c #F78BB9",
"y. c #F58EB9",
"u. c #FE8BBB",
"i. c #FC8CBA",
"p. c #FD8DBB",
"a. c #FD8EBB",
"s. c #FD8EBC",
"d. c #FD8FBC",
"f. c #EC90B8",
"g. c #F691BB",
"h. c #F695BE",
"j. c #F797BF",
"k. c #F79BC1",
"l. c #F69CC1",
"z. c #F59FC4",
"x. c #F89EC3",
"c. c #F7A0C4",
"v. c #F7A2C5",
"b. c #F8A0C5",
"n. c #F9A1C5",
"m. c #F8A1C6",
"M. c #F8A5C8",
"N. c #F9A5C8",
"B. c #FCA6C9",
"V. c #FFB2D3",
"C. c #FAB4D2",
"Z. c #FCB7D5",
"A. c #FFB6D5",
"S. c #FCB8D5",
"D. c #FCBDD9",
"F. c #FEBFDA",
"G. c #FEBFDB",
"H. c #FFBFDC",
"J. c #FEC0DB",
"K. c #FCC1DC",
"L. c #FDC1DC",
"P. c #FEC0DC",
"I. c #FEC1DC",
"U. c #FFC1DD",
"Y. c #FCC2DD",
"T. c #FDC2DD",
"R. c #FCC3DD",
"E. c #FDC3DD",
"W. c #FFC2DD",
"Q. c #FEC3DD",
"!. c #FCC3DE",
"~. c #FFC2DE",
"^. c #FFC3DE",
"/. c #FFC3DF",
"(. c #FCC4DE",
"). c #FDC4DE",
"_. c #FCC5DE",
"`. c #FFC4DE",
"'. c #FEC5DE",
"]. c #FFC5DE",
"[. c #FFC5DF",
"{. c #FFC6DF",
"}. c #FEC7DF",
"|. c #FFC3E0",
" X c #FFC5E0",
".X c #FEC6E0",
"XX c #FFC6E0",
"oX c #FEC7E0",
"OX c #FFC7E0",
"+X c #FFC6E1",
"@X c #FFC7E1",
"#X c #FFC6E2",
"$X c #FFC7E2",
"%X c #FFC7E4",
"&X c #FFC8E1",
"*X c #FFC8E2",
"=X c #FFC8E3",
"-X c #FFC9E3",
";X c #FFCAE3",
":X c #FFCBE3",
">X c #FFC9E4",
",X c #FFCAE4",
"<X c #FFCBE5",
"1X c #FFCCE6",
"2X c #FFCDE7",
"3X c #FFCEE6",
"4X c #FFD0E5",
"5X c #FED2E6",
"6X c #FFD0E9",
"7X c #FED9E9",
"8X c #FFD9EA",
"9X c #FFDAEA",
"0X c #FFD8EC",
"qX c #E4E3E6",
"wX c #E5E3E6",
"eX c #E5E4E7",
"rX c #E3E7E8",
"tX c #FCE6F0",
"yX c #FEE6F1",
"uX c #FFE5F5",
"iX c #FBE8F1",
"pX c #F8F7F9",
"aX c #FBFAFB",
"sX c #FDFAFC",
"dX c #FEFBFD",
"fX c #FDFCFD",
"gX c #FEFCFD",
"hX c #FEFDFE",
"jX c #FDFFFF",
"kX c #FEFEFE",
"lX c #FFFEFF",
"zX c #FEFFFF",
"xX c white",
/* pixels */
"                                                                ",
"                                                                ",
"                                                                ",
"                                                                ",
"                                                                ",
"                2 w q e 8 5 8 8 7 7 7 8 - ; , =                 ",
"              4 qXxXpXiX_.Y._.Y.U._.Y.Y.z.2.t.{ :               ",
"            4 qXxXxXxX0X%X2X1X1X1X1X1X2X|.s.u.s.z &             ",
"          1 eXxXxXaXtXY.J.'.'.U.U.'.U.'.'.c.2.8.s.z &           ",
"        # qXxXdXxXdX4XU.#X'.'.'.'.'.'.'.#XG.,.,.t.p.{ &         ",
"      @ qXxXsXxXxXiX'.U.'.'.'.'.'.'.'.'.'.'.M.,.=.8.i.{ $       ",
"    e rXxXjXxXxXxX4XU.:X}.*X#X*X*X#X*X*X*X*XU.y.8.e.e.p.{ <     ",
"    ] uX7X7X7X7X7X'.M.l.m.m.m.c.m.m.x.m.x.c.f.Q / / ~ ) ' 0     ",
"      [ #XU.J.G.'.J.g.` ,.*.*.&.*.*.*.*.,.$.v v b l B A y       ",
"        O.<X#X'.#X'.S.y.,.8.8.8.e.8.8.8.t.W S S b K K f         ",
"          O.*X#XU.*XU.h.,.8.8.2.2.2.8.8.=.S b b K K f X         ",
"            X.*X*XU.*XS.8.,.8.8.8.2.8.2.R b B K K u             ",
"              X.*X'.#XJ.h.=.2.8.2.8.8.&.K b K K f               ",
"                O.<X#X'.S.8.,.t.2.8.8.R b K E d O               ",
"                  X.*X*XD.k.,.8.8.2.%.F A E d o                 ",
"                    O.#X1XC.,.,.2.e.R A E u                     ",
"                      X.<X'.l.,.8.#.Y K a                       ",
"                        | 2XA.$.e./ C f .                       ",
"                          | #XB.` R u                           ",
"                            @.V.! t                             ",
"                              j h                               ",
"                              $ >                               ",
"                                                                ",
"                                                                ",
"                                                                ",
"                                                                ",
"                                                                "
};
